<?xml version="1.0" encoding="UTF-8"?>
<!DOCTYPE svg PUBLIC "-//W3C//DTD SVG 1.1//EN" "http://www.w3.org/Graphics/SVG/1.1/DTD/svg11.dtd">
<svg xmlns="http://www.w3.org/2000/svg" version="1.1" width="198px" height="177px" style="shape-rendering:geometricPrecision; text-rendering:geometricPrecision; image-rendering:optimizeQuality; fill-rule:evenodd; clip-rule:evenodd" xmlns:xlink="http://www.w3.org/1999/xlink">
<g><path style="opacity:1" fill="#db4120" d="M 169.5,79.5 C 168.833,80.1667 168.167,80.8333 167.5,81.5C 163.836,77.1534 160.502,72.4867 157.5,67.5C 160.833,61.1667 164.167,54.8333 167.5,48.5C 166.975,47.8076 166.308,47.3076 165.5,47C 162.167,46.3333 158.833,46.3333 155.5,47C 152.501,51.1655 150.167,55.6655 148.5,60.5C 147.833,56.1667 147.167,51.8333 146.5,47.5C 142.767,46.179 138.934,46.179 135,47.5C 134.333,61.1667 134.333,74.8333 135,88.5C 138.73,89.4601 142.563,89.7935 146.5,89.5C 146.173,84.456 146.506,79.456 147.5,74.5C 150.611,79.2134 153.611,84.0467 156.5,89C 161.179,89.7482 165.346,88.5816 169,85.5C 178.014,92.3685 186.681,92.0351 195,84.5C 196.759,108.148 186.259,123.314 163.5,130C 143.5,130.333 123.5,130.667 103.5,131C 89,145.5 74.5,160 60,174.5C 59.5001,159.837 59.3334,145.17 59.5,130.5C 36.3695,135.086 18.8695,127.42 7,107.5C 4.55911,101.738 3.39244,95.7384 3.5,89.5C 11.253,89.8961 18.9196,89.3961 26.5,88C 30.8019,86.0649 32.8019,82.7316 32.5,78C 32.7056,73.245 30.7056,69.745 26.5,67.5C 31.889,62.4997 32.7223,56.8331 29,50.5C 26.4571,48.6457 23.6237,47.4791 20.5,47C 14.8431,46.5006 9.17645,46.3339 3.5,46.5C 3.31146,21.8592 15.3115,7.35924 39.5,3C 79.5,2.33333 119.5,2.33333 159.5,3C 184.161,7.50178 196.161,22.3351 195.5,47.5C 190.195,46.5581 184.861,46.3914 179.5,47C 171.501,50.1674 168.667,56.0008 171,64.5C 173.454,69.3263 177.288,72.6596 182.5,74.5C 183.429,75.6888 183.762,77.0222 183.5,78.5C 179.014,79.0056 175.181,77.6723 172,74.5C 170.628,75.9101 169.795,77.5767 169.5,79.5 Z M 36.5,46.5 C 43.5736,46.161 50.5736,46.661 57.5,48C 64.7791,51.8293 66.9458,57.6626 64,65.5C 62.8783,67.6238 61.3783,69.4571 59.5,71C 62.1667,75.3333 64.8333,79.6667 67.5,84C 64.4237,88.1176 60.4237,89.7843 55.5,89C 53.3792,83.9713 50.8792,79.138 48,74.5C 46.5585,79.3088 46.0585,84.3088 46.5,89.5C 42.8333,89.5 39.1667,89.5 35.5,89.5C 35.1844,75.0882 35.5178,60.7548 36.5,46.5 Z M 93.5,81.5 C 93.5,83.5 93.5,85.5 93.5,87.5C 93.3893,88.1174 93.056,88.6174 92.5,89C 84.8406,89.4997 77.1739,89.6664 69.5,89.5C 69.5,75.1667 69.5,60.8333 69.5,46.5C 77.1739,46.3336 84.8406,46.5003 92.5,47C 93.8333,50.3333 93.8333,53.6667 92.5,57C 88.5138,57.4988 84.5138,57.6655 80.5,57.5C 80.5,59.5 80.5,61.5 80.5,63.5C 83.5,63.5 86.5,63.5 89.5,63.5C 90.5411,66.4578 90.5411,69.4578 89.5,72.5C 86.8127,72.3359 84.146,72.5026 81.5,73C 80.5939,74.6995 80.2606,76.5328 80.5,78.5C 84.5138,78.3345 88.5138,78.5012 92.5,79C 93.2524,79.6708 93.5858,80.5041 93.5,81.5 Z M 95.5,89.5 C 95.5,88.5 95.5,87.5 95.5,86.5C 98.84,73.4747 102.34,60.4747 106,47.5C 111.082,46.363 116.249,46.1963 121.5,47C 126.283,60.8542 129.95,75.0208 132.5,89.5C 128.818,89.6653 125.152,89.4986 121.5,89C 119.811,86.4425 118.644,83.6092 118,80.5C 114.875,79.2126 111.709,79.2126 108.5,80.5C 107.803,83.2903 106.803,85.9569 105.5,88.5C 102.242,89.4173 98.909,89.7507 95.5,89.5 Z"/></g>
<g><path style="opacity:1" fill="#e0a08f" d="M 146.5,47.5 C 147.167,51.8333 147.833,56.1667 148.5,60.5C 148.44,61.0431 148.107,61.3764 147.5,61.5C 146.507,56.8804 146.173,52.2137 146.5,47.5 Z"/></g>
<g><path style="opacity:1" fill="#dd6d52" d="M 17.5,57.5 C 16.5,57.5 15.5,57.5 14.5,57.5C 14.5,59.8333 14.5,62.1667 14.5,64.5C 13.5269,62.0521 13.1936,59.3854 13.5,56.5C 15.099,56.2322 16.4324,56.5655 17.5,57.5 Z"/></g>
<g><path style="opacity:1" fill="#db4625" d="M 17.5,57.5 C 18.6935,57.9704 19.3601,58.9704 19.5,60.5C 19.1986,63.489 17.5319,64.8224 14.5,64.5C 14.5,62.1667 14.5,59.8333 14.5,57.5C 15.5,57.5 16.5,57.5 17.5,57.5 Z"/></g>
<g><path style="opacity:1" fill="#de5939" d="M 46.5,57.5 C 50.4589,56.5778 52.7922,58.0778 53.5,62C 52.5046,65.5015 50.1713,67.0015 46.5,66.5C 46.5,63.5 46.5,60.5 46.5,57.5 Z"/></g>
<g><path style="opacity:1" fill="#dc4b2a" d="M 194.5,55.5 C 195.645,59.3112 195.812,63.3112 195,67.5C 191.919,64.7069 188.419,62.5403 184.5,61C 183.18,58.785 183.847,57.285 186.5,56.5C 188.5,57.1667 190.5,57.8333 192.5,58.5C 193.919,57.9953 194.585,56.9953 194.5,55.5 Z"/></g>
<g><path style="opacity:1" fill="#dd5434" d="M 112.5,60.5 C 113.117,60.6107 113.617,60.944 114,61.5C 114.521,64.9185 115.355,68.2519 116.5,71.5C 114.604,72.4656 112.604,72.7989 110.5,72.5C 110.848,68.4432 111.514,64.4432 112.5,60.5 Z"/></g>
<g><path style="opacity:1" fill="#de765d" d="M 17.5,72.5 C 16.5,72.5 15.5,72.5 14.5,72.5C 14.5,74.8333 14.5,77.1667 14.5,79.5C 13.5269,77.0521 13.1936,74.3854 13.5,71.5C 15.099,71.2322 16.4324,71.5655 17.5,72.5 Z"/></g>
<g><path style="opacity:1" fill="#db4523" d="M 17.5,72.5 C 18.6935,72.9704 19.3601,73.9704 19.5,75.5C 19.597,78.9114 17.9304,80.2447 14.5,79.5C 14.5,77.1667 14.5,74.8333 14.5,72.5C 15.5,72.5 16.5,72.5 17.5,72.5 Z"/></g>
<g><path style="opacity:1" fill="#df836c" d="M 169.5,79.5 C 169.657,80.8734 169.49,82.2068 169,83.5C 168.283,82.9558 167.783,82.2891 167.5,81.5C 168.167,80.8333 168.833,80.1667 169.5,79.5 Z"/></g>
<g><path style="opacity:1" fill="#de7258" d="M 93.5,81.5 C 94.1667,83.1667 94.8333,84.8333 95.5,86.5C 95.5,87.5 95.5,88.5 95.5,89.5C 94.8333,88.8333 94.1667,88.1667 93.5,87.5C 93.5,85.5 93.5,83.5 93.5,81.5 Z"/></g>
</svg>
